<?xml version="1.0" encoding="UTF-8"?>
<svg width="200" height="50" viewBox="0 0 200 50" fill="none" xmlns="http://www.w3.org/2000/svg">
  <!-- D icon -->
  <path d="M10 10H25C30.5228 10 35 14.4772 35 20V30C35 35.5228 30.5228 40 25 40H10V10Z" fill="#1B365D"/>
  <path d="M15 15V35H25C28.866 35 32 31.866 32 28V22C32 18.134 28.866 15 25 15H15Z" fill="white"/>
  
  <!-- T icon -->
  <path d="M45 10H65V15H57.5V40H52.5V15H45V10Z" fill="#1B365D"/>
  
  <!-- W icon -->
  <path d="M70 10L80 30L90 10H95L105 30L115 10H120L127.5 40H122.5L115 15L105 35L95 15L85 35L75 15L67.5 40H62.5L70 10Z" fill="#1B365D"/>
  
  <!-- West text -->
  <path d="M130 10H140V25H150V10H155V40H150V30H140V40H135L130 35V10Z" fill="#00A86B"/>
  <path d="M160 10H170V35H180V40H160V10Z" fill="#00A86B"/>
  <path d="M185 10H200V15H190V22.5H200V27.5H190V35H200V40H185V10Z" fill="#00A86B"/>
  <path d="M205 10H225V15H210V22.5H225V27.5H210V35H225V40H205V10Z" fill="#00A86B"/>
</svg>
